{"title":"Hichki (2018) 720p Hindi Movie HDRip x264 AAC by Full4movies","magnet":"magnet:?xt=urn:btih:57e1fa9e69279c172b2d1c3de17965c655a980b6&dn=+Hichki+%282018%29+720p+Hindi+Movie+HDRip+x264+AAC+by+Full4movies&tr=udp%3A%2F%2Ftracker.leechers-paradise.org%3A6969&tr=udp%3A%2F%2Fzer0day.ch%3A1337&tr=udp%3A%2F%2Fopen.demonii.com%3A1337&tr=udp%3A%2F%2Ftracker.coppersurfer.tk%3A6969&tr=udp%3A%2F%2Fexodus.desync.com%3A6969","uploader":"shmasti","categoryP":"video","categoryS":"movies","size":"559503589","seeders":"4","leechers":"13","description":"General\r\nComplete name                  : Hichki (2018) 720p Hindi Movie HDRip x264 AAC by Full4movies.mkv\r\nFormat                         : Matroska\r\nFormat version                 : Version 4 / Version 2\r\nFile size                      : 534 MiB\r\nDuration                       : 1 h 56 min\r\nOverall bit rate               : 641 kb/s\r\nMovie name                     : Hichki (2018) - www.Full4movies.co\r\nEncoded date                   : UTC 2018-05-07 10:14:39\r\nWriting application            : mkvmerge v8.1.0 (&apos;Psychedelic Postcard&apos;) 32bit\r\nWriting library                : libebml v1.3.1 + libmatroska v1.4.2\r\n\r\nVideo\r\nID                             : 1\r\nFormat                         : AVC\r\nFormat/Info                    : Advanced Video Codec\r\nFormat profile                 : High@L3.1\r\nFormat settings, CABAC         : Yes\r\nFormat settings, RefFrames     : 5 frames\r\nCodec ID                       : V_MPEG4/ISO/AVC\r\nDuration                       : 1 h 56 min\r\nBit rate                       : 512 kb/s\r\nWidth                          : 720 pixels\r\nHeight                         : 304 pixels\r\nDisplay aspect ratio           : 2.35:1\r\nFrame rate mode                : Constant\r\nFrame rate                     : 23.976 (24000/1001) FPS\r\nColor space                    : YUV\r\nChroma subsampling             : 4:2:0\r\nBit depth                      : 8 bits\r\nScan type                      : Progressive\r\nBits/(Pixel*Frame)             : 0.098\r\nStream size                    : 425 MiB (80%)\r\nWriting library                : x264 core 148 r2643 5c65704\r\nLanguage                       : Hindi\r\nDefault                        : Yes\r\nForced                         : No\r\n\r\nAudio\r\nID                             : 2\r\nFormat                         : AAC\r\nFormat/Info                    : Advanced Audio Codec\r\nFormat profile                 : LC\r\nCodec ID                       : A_AAC\r\nDuration                       : 1 h 56 min\r\nBit rate                       : 128 kb/s\r\nChannel(s)                     : 2 channels\r\nChannel positions              : Front: L R\r\nSampling rate                  : 48.0 kHz\r\nFrame rate                     : 46.875 FPS (1024 SPF)\r\nCompression mode               : Lossy\r\nStream size                    : 107 MiB (20%)\r\nLanguage                       : Hindi\r\nDefault                        : Yes\r\nForced                         : No","last_updated":"2018-05-07T12:04:26.058Z","parsed":{"xt":"urn:btih:57e1fa9e69279c172b2d1c3de17965c655a980b6","dn":" Hichki (2018) 720p Hindi Movie HDRip x264 AAC by Full4movies","tr":["udp://exodus.desync.com:6969","udp://open.demonii.com:1337","udp://tracker.coppersurfer.tk:6969","udp://tracker.leechers-paradise.org:6969","udp://zer0day.ch:1337"],"infoHash":"57e1fa9e69279c172b2d1c3de17965c655a980b6","infoHashBuffer":{"type":"Buffer","data":[87,225,250,158,105,39,156,23,43,45,28,61,225,121,101,198,85,169,128,182]},"name":" Hichki (2018) 720p Hindi Movie HDRip x264 AAC by Full4movies","announce":["udp://exodus.desync.com:6969","udp://open.demonii.com:1337","udp://tracker.coppersurfer.tk:6969","udp://tracker.leechers-paradise.org:6969","udp://zer0day.ch:1337"],"urlList":[]}}